<svg width="107" height="39" viewBox="0 0 107 39" fill="none" xmlns="http://www.w3.org/2000/svg">
<g clip-path="url(#clip0_2_206)">
<mask id="mask0_2_206" style="mask-type:alpha" maskUnits="userSpaceOnUse" x="1" y="9" width="107" height="26">
<path d="M13.6342 28.7398C12.9252 28.7398 12.3435 28.5126 11.889 28.0581C11.4346 27.5855 11.2073 26.9583 11.2073 26.1766C11.2073 25.3767 11.6073 23.1316 12.4071 19.4413C11.9345 19.3322 11.171 19.2777 10.1166 19.2777C9.06221 19.2777 8.05328 19.3686 7.08979 19.5504C6.16266 23.7315 5.67183 26.5311 5.6173 27.949C4.96285 28.3126 3.58125 28.4944 1.4725 28.4944H1.19981C1.25435 27.6945 1.73609 25.304 2.64504 21.3228C3.57216 17.3416 4.1448 14.3512 4.36295 12.3515C4.36295 12.0606 4.27205 11.7152 4.09026 11.3153C3.90847 10.8972 3.72669 10.5609 3.5449 10.3064L3.24494 9.9246L3.32675 9.51558C4.39931 9.20653 6.09904 9.05201 8.42594 9.05201C8.64409 9.41559 8.75317 10.0064 8.75317 10.8245C8.75317 11.6425 8.34414 13.8967 7.52609 17.587H12.7889C13.4252 14.3512 13.7524 12.0425 13.7706 10.6609C13.7706 10.3518 13.7524 10.0973 13.716 9.89734C15.1703 9.33379 16.6337 9.05201 18.1062 9.05201C18.1608 9.16109 18.188 9.43377 18.188 9.87007C18.188 10.8699 17.7427 13.4422 16.8519 17.587C15.9793 21.7318 15.543 24.3678 15.543 25.4949C15.543 25.9857 15.6248 26.2311 15.7884 26.2311C15.952 26.2311 16.5065 25.9948 17.4518 25.5221L17.9426 26.5311C16.3247 28.0036 14.8886 28.7398 13.6342 28.7398ZM34.3218 11.4516C34.8126 12.1788 35.1762 12.9514 35.4125 13.7695C35.6489 14.5693 35.767 15.4601 35.767 16.4418C35.767 17.4234 35.6579 18.4687 35.4398 19.5776C35.2216 20.6865 34.8581 21.7955 34.3491 22.9044C33.84 24.0133 33.222 24.995 32.4948 25.8494C31.7676 26.7038 30.8496 27.4037 29.7407 27.949C28.6318 28.4762 27.4138 28.7398 26.0867 28.7398C24.1416 28.7398 22.6327 28.049 21.5602 26.6674C20.4876 25.2676 19.9513 23.477 19.9513 21.2955C19.9513 19.0959 20.3331 17.0871 21.0966 15.2692C21.8783 13.4331 22.9872 11.9425 24.4234 10.7972C25.8777 9.63374 27.4865 9.05201 29.2499 9.05201C30.4133 9.05201 31.4313 9.27016 32.3039 9.70646C33.1765 10.1428 33.8491 10.7245 34.3218 11.4516ZM26.9048 26.8856C27.7592 26.8856 28.4773 26.5129 29.059 25.7676C29.6589 25.0222 30.1134 24.0496 30.4224 22.8498C31.0405 20.4866 31.3495 18.0597 31.3495 15.5692C31.3495 12.4606 30.5133 10.9063 28.8408 10.9063C27.8955 10.9063 27.0684 11.4698 26.3594 12.5969C25.0323 14.7238 24.3688 17.6688 24.3688 21.4319C24.3688 23.4861 24.487 24.7586 24.7233 25.2495C24.8324 25.5221 24.9778 25.8039 25.1596 26.0948C25.4868 26.622 26.0685 26.8856 26.9048 26.8856ZM57.4384 28.7398C56.7658 28.7398 56.2204 28.5035 55.8023 28.0308C55.3842 27.54 55.1751 26.8856 55.1751 26.0675C55.1751 25.2313 55.5478 23.168 56.2931 19.8776C57.0566 16.5872 57.4384 14.4875 57.4384 13.5786C57.4384 12.6696 57.0839 12.2152 56.3749 12.2152C55.3933 12.2152 54.3116 12.6514 53.13 13.524C53.0027 14.5057 52.6301 16.2236 52.012 18.6778C51.3939 21.1137 50.9758 22.9226 50.7576 24.1042C50.5577 25.2676 50.4577 26.1675 50.4577 26.8038C50.4577 27.44 50.4668 27.8309 50.4849 27.9763C49.776 28.3399 48.5125 28.5217 46.6946 28.5217H46.1765C46.1765 26.9946 46.6037 24.395 47.4581 20.7229C48.3307 16.978 48.767 14.6239 48.767 13.6604C48.767 12.6969 48.4307 12.2152 47.7581 12.2152C46.7764 12.2152 45.6312 12.6878 44.3223 13.6331C44.1223 14.633 43.7496 16.26 43.2043 18.5142C41.9863 23.677 41.3773 26.831 41.3773 27.9763C40.6683 28.3399 39.414 28.5217 37.6142 28.5217H37.0961C37.1689 27.7036 37.6506 25.304 38.5414 21.3228C39.4321 17.3234 39.9866 14.333 40.2047 12.3515C40.2047 12.0606 40.1048 11.7152 39.9048 11.3153C39.723 10.8972 39.5321 10.5609 39.3321 10.3064L39.0595 9.9246L39.1413 9.51558C40.1593 9.20653 41.9136 9.05201 44.4041 9.05201C44.6404 9.48831 44.7586 10.0428 44.7586 10.7154C44.7586 10.8608 44.7222 11.2426 44.6495 11.8607C46.7401 9.98823 48.6125 9.05201 50.2668 9.05201C51.0121 9.05201 51.6393 9.30652 52.1483 9.81553C52.6573 10.3245 52.9845 10.9881 53.13 11.8061C55.2933 9.97005 57.1293 9.05201 58.6382 9.05201C59.5835 9.05201 60.347 9.36106 60.9287 9.97914C61.5105 10.5972 61.8013 11.4607 61.8013 12.5696C61.8013 13.6786 61.4105 15.7964 60.6288 18.9232C59.8653 22.0318 59.4835 24.2042 59.4835 25.4403C59.4835 25.9675 59.5744 26.2311 59.7562 26.2311C59.9198 26.2311 60.3652 26.0493 61.0924 25.6858L61.4741 25.5221L62.0195 26.5311C61.2378 27.2037 60.447 27.74 59.6471 28.1399C58.8654 28.5399 58.1292 28.7398 57.4384 28.7398ZM42.1135 17.7779C42.0954 17.8143 42.0863 17.8597 42.0863 17.9143L42.1135 17.7779ZM69.1291 28.7398C67.8566 28.7398 66.6386 28.3762 65.4751 27.6491C64.8934 27.2855 64.4116 26.7765 64.0299 26.122C63.6663 25.4676 63.4845 24.7132 63.4845 23.8588C63.4845 22.2408 64.0208 20.9229 65.0934 19.9048C66.1659 18.8868 67.4566 18.296 68.9655 18.1324C67.9475 17.8597 67.1294 17.3871 66.5113 16.7144C65.9114 16.0418 65.6115 15.1874 65.6115 14.1512C65.6115 12.5878 66.2205 11.3517 67.4384 10.4427C68.6746 9.51558 70.0835 9.05201 71.6651 9.05201C73.2466 9.05201 74.5646 9.38832 75.619 10.0609C76.6734 10.7336 77.2005 11.6425 77.2005 12.7878C77.2005 13.1877 77.1278 13.5786 76.9824 13.9603C76.8551 14.3421 76.7188 14.6148 76.5734 14.7784L76.3825 15.0511C75.8008 15.0511 75.1554 14.9511 74.4464 14.7511C73.7556 14.5511 73.2466 14.2966 72.9194 13.9876L73.2466 11.179C72.9739 10.9063 72.5104 10.7699 71.8559 10.7699C71.2197 10.7699 70.7107 11.1062 70.3289 11.7789C69.9653 12.4333 69.7835 13.1877 69.7835 14.0421C69.7835 14.8965 69.8835 15.5419 70.0835 15.9782C70.2835 16.4145 70.5652 16.7508 70.9288 16.9871C71.4924 17.3507 72.1559 17.6052 72.9194 17.7506L72.7013 19.2504C71.3924 19.2504 70.2562 19.6413 69.2927 20.4229C68.3292 21.1865 67.8475 22.2045 67.8475 23.477C67.8475 24.2769 68.102 24.9404 68.611 25.4676C69.1382 25.9766 69.8108 26.2311 70.6289 26.2311C72.1195 26.2311 73.6466 25.4767 75.2099 23.9678L76.3007 24.9768C74.1919 27.4855 71.8014 28.7398 69.1291 28.7398ZM89.4617 27.1037C89.2436 27.6673 88.8982 28.1126 88.4255 28.4399C87.9711 28.7671 87.4257 28.9307 86.7894 28.9307C86.1714 28.9307 85.2351 28.5489 83.9808 27.7854C82.7446 27.0219 81.7539 26.5311 81.0085 26.3129C80.5177 26.9674 79.9632 27.5127 79.3452 27.949C78.7271 28.3853 78.2999 28.6035 78.0635 28.6035C77.8818 28.6035 77.5182 28.2126 76.9728 27.4309C76.4274 26.6311 76.1548 26.0584 76.1548 25.713C76.1548 25.5131 76.4365 25.2131 77.0001 24.8132C77.5818 24.4132 78.1908 24.1405 78.8271 23.9951C79.2815 22.8862 79.7542 21.2501 80.245 19.0868C80.7359 16.9053 81.1176 14.6602 81.3903 12.3515C81.3903 12.0606 81.2903 11.7152 81.0903 11.3153C80.9086 10.8972 80.7177 10.5609 80.5177 10.3064L80.245 9.9246L80.3268 9.51558C81.4176 9.20653 83.2082 9.05201 85.6987 9.05201C85.935 9.45195 86.0532 10.0609 86.0532 10.879C86.0532 11.6971 85.8169 12.915 85.3442 14.533C84.8716 16.1509 84.2171 18.096 83.3809 20.3684C82.5628 22.6226 82.0902 23.9588 81.9629 24.3769C82.0356 24.395 82.2629 24.4587 82.6446 24.5677C83.0264 24.6768 83.2718 24.7495 83.3809 24.7859C83.5081 24.8041 83.7445 24.8586 84.0899 24.9495C84.4353 25.0222 84.708 25.0768 84.9079 25.1131C85.1079 25.1313 85.3715 25.1586 85.6987 25.1949C86.2623 25.2858 86.7894 25.3313 87.2803 25.3313C87.7893 25.3313 88.1529 25.204 88.371 24.9495L89.1345 23.5315L90.0344 23.7497C90.0344 24.9313 89.8435 26.0493 89.4617 27.1037ZM99.1307 33.3755C98.349 33.8663 97.6492 34.1753 97.0311 34.3026C96.4312 34.448 95.7767 34.5207 95.0677 34.5207C94.3588 34.5207 93.7498 34.3117 93.2408 33.8936C92.7499 33.4754 92.5045 32.921 92.5045 32.2302C92.5045 31.5394 92.7318 30.9122 93.1862 30.3487C93.6589 29.7851 94.2224 29.3397 94.8769 29.0125C96.2039 28.3217 97.4128 27.8672 98.5036 27.6491L99.2125 27.5127C99.2307 27.44 99.3398 27.0764 99.5398 26.422C99.7397 25.7676 99.8852 25.2585 99.9761 24.895C97.6673 26.2766 95.7676 26.9674 94.277 26.9674C93.3862 26.9674 92.6499 26.6856 92.0682 26.122C91.4865 25.5403 91.1956 24.7223 91.1956 23.6679C91.1956 22.5953 91.541 20.6775 92.2318 17.9143C92.9226 15.1329 93.268 13.2786 93.268 12.3515C93.268 11.7516 92.9953 11.0699 92.45 10.3064L92.1773 9.9246L92.2591 9.51558C93.3498 9.20653 95.0314 9.05201 97.3038 9.05201C97.5583 9.59738 97.6855 10.3336 97.6855 11.2608C97.6855 12.1879 97.3401 14.1512 96.6493 17.1507C95.9585 20.1321 95.6131 21.8591 95.6131 22.3317C95.6131 23.2952 95.9403 23.777 96.5948 23.777C97.8309 23.777 99.1489 23.4225 100.549 22.7135C101.658 18.1506 102.412 13.8422 102.812 9.78826C103.739 9.31561 105.012 9.07928 106.63 9.07928H107.148C107.148 10.0428 106.984 11.3789 106.657 13.0877C106.239 15.251 105.593 18.5232 104.721 22.9044C104.339 24.8677 103.839 26.5856 103.221 28.0581C102.603 29.5124 101.967 30.6395 101.312 31.4394C100.658 32.2393 99.9306 32.8846 99.1307 33.3755ZM95.0677 32.6937C95.704 32.6937 96.3675 32.3393 97.0583 31.6303C97.7491 30.9395 98.3127 30.1123 98.749 29.1488C97.8946 29.2397 96.9311 29.567 95.8585 30.1305C94.8042 30.7122 94.277 31.3031 94.277 31.903C94.277 32.1211 94.3497 32.3029 94.4951 32.4483C94.6587 32.6119 94.8496 32.6937 95.0677 32.6937Z" fill="black"/>
</mask>
<g mask="url(#mask0_2_206)">
<rect y="-6.00012" width="107" height="44" fill="url(#paint0_linear_2_206)"/>
</g>
</g>
<defs>
<linearGradient id="paint0_linear_2_206" x1="14" y1="-6.00012" x2="97" y2="15.9999" gradientUnits="userSpaceOnUse">
<stop stop-color="#FF4D00"/>
<stop offset="0.598958" stop-color="#2549D3"/>
<stop offset="0.71875" stop-color="#FF5106"/>
<stop offset="0.979167" stop-color="#FC5005"/>
</linearGradient>
<clipPath id="clip0_2_206">
<rect width="107" height="38" fill="white" transform="translate(0 0.412598)"/>
</clipPath>
</defs>
</svg>
