<svg width="21" height="22" viewBox="0 0 21 22" fill="none" xmlns="http://www.w3.org/2000/svg">
<path d="M2.21272 14.5V2.5H0.212719V0.5H3.21272C3.47794 0.5 3.73229 0.605357 3.91983 0.792893C4.10736 0.98043 4.21272 1.23478 4.21272 1.5V13.5H16.6507L18.6507 5.5H6.21272V3.5H19.9327C20.0847 3.5 20.2347 3.53466 20.3713 3.60134C20.5079 3.66801 20.6275 3.76495 20.7211 3.88479C20.8146 4.00462 20.8795 4.1442 20.911 4.29291C20.9425 4.44162 20.9397 4.59555 20.9027 4.743L18.4027 14.743C18.3485 14.9592 18.2237 15.1512 18.0479 15.2883C17.8722 15.4255 17.6556 15.5 17.4327 15.5H3.21272C2.9475 15.5 2.69315 15.3946 2.50561 15.2071C2.31808 15.0196 2.21272 14.7652 2.21272 14.5ZM4.21272 21.5C3.68229 21.5 3.17358 21.2893 2.79851 20.9142C2.42343 20.5391 2.21272 20.0304 2.21272 19.5C2.21272 18.9696 2.42343 18.4609 2.79851 18.0858C3.17358 17.7107 3.68229 17.5 4.21272 17.5C4.74315 17.5 5.25186 17.7107 5.62693 18.0858C6.00201 18.4609 6.21272 18.9696 6.21272 19.5C6.21272 20.0304 6.00201 20.5391 5.62693 20.9142C5.25186 21.2893 4.74315 21.5 4.21272 21.5ZM16.2127 21.5C15.6823 21.5 15.1736 21.2893 14.7985 20.9142C14.4234 20.5391 14.2127 20.0304 14.2127 19.5C14.2127 18.9696 14.4234 18.4609 14.7985 18.0858C15.1736 17.7107 15.6823 17.5 16.2127 17.5C16.7432 17.5 17.2519 17.7107 17.6269 18.0858C18.002 18.4609 18.2127 18.9696 18.2127 19.5C18.2127 20.0304 18.002 20.5391 17.6269 20.9142C17.2519 21.2893 16.7432 21.5 16.2127 21.5Z" fill="white"/>
</svg>
