<svg width="60" height="60" viewBox="0 0 60 60" fill="none" xmlns="http://www.w3.org/2000/svg">
<path d="M20 10H52.5V15H20V10ZM11.25 16.25C10.2554 16.25 9.30161 15.8549 8.59835 15.1517C7.89509 14.4484 7.5 13.4946 7.5 12.5C7.5 11.5054 7.89509 10.5516 8.59835 9.84835C9.30161 9.14509 10.2554 8.75 11.25 8.75C12.2446 8.75 13.1984 9.14509 13.9017 9.84835C14.6049 10.5516 15 11.5054 15 12.5C15 13.4946 14.6049 14.4484 13.9017 15.1517C13.1984 15.8549 12.2446 16.25 11.25 16.25ZM11.25 33.75C10.2554 33.75 9.30161 33.3549 8.59835 32.6517C7.89509 31.9484 7.5 30.9946 7.5 30C7.5 29.0054 7.89509 28.0516 8.59835 27.3483C9.30161 26.6451 10.2554 26.25 11.25 26.25C12.2446 26.25 13.1984 26.6451 13.9017 27.3483C14.6049 28.0516 15 29.0054 15 30C15 30.9946 14.6049 31.9484 13.9017 32.6517C13.1984 33.3549 12.2446 33.75 11.25 33.75ZM11.25 51C10.2554 51 9.30161 50.6049 8.59835 49.9017C7.89509 49.1984 7.5 48.2446 7.5 47.25C7.5 46.2554 7.89509 45.3016 8.59835 44.5984C9.30161 43.8951 10.2554 43.5 11.25 43.5C12.2446 43.5 13.1984 43.8951 13.9017 44.5984C14.6049 45.3016 15 46.2554 15 47.25C15 48.2446 14.6049 49.1984 13.9017 49.9017C13.1984 50.6049 12.2446 51 11.25 51ZM20 27.5H52.5V32.5H20V27.5ZM20 45H52.5V50H20V45Z" fill="#FF4D00"/>
</svg>
