<svg width="22" height="38" viewBox="0 0 22 38" fill="none" xmlns="http://www.w3.org/2000/svg">
<path d="M12.5 14.5833H21.875L20.8333 18.75H12.5V37.5H8.33333V18.75H0V14.5833H8.33333V10.6833C8.33333 6.96875 8.72083 5.62083 9.44583 4.2625C10.1563 2.92043 11.2538 1.82294 12.5958 1.1125C13.9542 0.3875 15.3021 0 19.0167 0C20.1042 0 21.0583 0.104167 21.875 0.3125V4.16667H19.0167C16.2583 4.16667 15.4187 4.32917 14.5625 4.7875C13.9292 5.125 13.4583 5.59583 13.1208 6.22917C12.6625 7.08542 12.5 7.925 12.5 10.6833V14.5833Z" fill="white"/>
</svg>
