<svg width="30" height="30" viewBox="0 0 30 30" fill="none" xmlns="http://www.w3.org/2000/svg">
<path d="M20.7962 3.6066C19.6595 3.60637 18.5681 4.14386 17.757 5.1034C16.9458 6.06294 16.4797 7.36784 16.4589 8.7373L16.4171 11.5757C16.4146 11.7281 16.3855 11.8781 16.3315 12.016C16.2775 12.1538 16.2 12.2764 16.104 12.3756C16.0079 12.4748 15.8956 12.5484 15.7743 12.5916C15.653 12.6349 15.5254 12.6467 15.4001 12.6263L13.0655 12.2443C9.99352 11.7397 7.0502 10.0348 4.22653 7.20007C3.33217 13.1652 5.07902 17.2975 9.28611 20.4855L11.8989 22.4642C12.023 22.5582 12.1262 22.6874 12.1993 22.8406C12.2724 22.9937 12.3132 23.1661 12.3183 23.3427C12.3233 23.5193 12.2923 23.6947 12.2281 23.8535C12.1638 24.0123 12.0683 24.1497 11.9497 24.2537L9.56877 26.3496C10.9851 26.4559 12.3296 26.3803 13.4453 26.1135C20.5015 24.4159 25.1932 18.0183 25.1932 7.46498C25.1932 6.60356 23.6796 3.6066 20.7962 3.6066ZM13.4678 8.67062C13.4939 6.93344 13.9447 5.24415 14.7638 3.81425C15.5829 2.38434 16.7338 1.27737 18.0726 0.631927C19.4113 -0.0135149 20.8783 -0.168742 22.2899 0.185681C23.7015 0.540104 24.9949 1.38843 26.0083 2.62443C27.0716 2.61542 27.9765 2.93981 30 1.46205C29.499 4.41756 29.2522 5.70069 28.1844 7.46498C28.1844 21.2369 21.1596 27.9337 14.0316 29.6475C9.14403 30.8225 2.03699 28.8924 0 26.3298C1.03794 26.2325 5.2555 25.6864 7.69331 23.5365C5.63089 21.8983 -2.57839 16.0774 2.81619 0.427624C5.34822 3.99046 7.91615 6.41614 10.5185 7.70287C12.2504 8.55888 12.6751 8.54086 13.4693 8.67242L13.4678 8.67062Z" fill="white"/>
</svg>
